<?xml version="1.0" encoding="iso-8859-1"?>
<!-- Generator: Adobe Illustrator 25.2.0, SVG Export Plug-In . SVG Version: 6.00 Build 0)  -->
<svg version="1.1" id="Layer_1" xmlns="http://www.w3.org/2000/svg" xmlns:xlink="http://www.w3.org/1999/xlink" x="100%" y="100%"
	 viewBox=
	 "0 0 1000 1000"
    xml:space="preserve">


<g>
	<g>
		<path style="fill:#FB0D0C;" d="M361.67,442.524c1.705,2.423,2.901,5.085,3.592,7.992l1.827-0.659l-4.079-25.206
			c-0.812,0.603-1.654,1.055-2.527,1.356c-0.873,0.303-1.552,0.465-2.039,0.493c-0.488,0.027-1.035,0.041-1.644,0.041h-36.527
			c-0.122,0-0.711,0-1.766,0c-0.082,0-0.416-0.024-1.004-0.073c-0.589-0.048-1.045-0.146-1.369-0.29
			c-0.812-0.436-1.482-0.945-2.009-1.527l-4.383,25.21l1.826,0.438c0.366-1.646,1.158-3.633,2.375-5.957
			c1.014-1.938,2.029-3.415,3.044-4.432c2.028-1.937,3.916-3.306,5.662-4.105c1.744-0.799,3.835-1.199,6.27-1.199v51.827
			c0,2.077-0.082,3.623-0.244,4.639c-0.163,1.014-0.67,2.005-1.522,2.971c-1.421,1.595-2.922,2.391-4.504,2.391
			c-0.366,0-0.65,0.025-0.852,0.073v2.762h33.362v-2.834c-1.3,0-2.374-0.18-3.227-0.543c-0.852-0.364-1.634-1.076-2.344-2.141
			c-0.71-1.065-1.177-2.274-1.4-3.629c-0.224-1.354-0.335-2.878-0.335-4.572c0-0.386,0-0.869,0-1.451l-0.06-49.492
			c2.922,0,5.488,0.642,7.701,1.925C357.702,437.814,359.762,439.812,361.67,442.524z"/>
	</g>
	<g>
		<path style="fill:#FB0D0C;" d="M503.283,499.267v-2.831c-0.962-0.192-1.743-0.496-2.343-0.907
			c-0.601-0.411-1.072-1.004-1.413-1.778c-0.341-0.774-0.581-1.584-0.721-2.43c-0.141-0.847-0.211-1.875-0.211-3.085l0.061-48.62
			l27.951,39.186c1.621,2.274,2.715,4.064,3.283,5.37c0.851,1.886,1.276,3.895,1.276,6.023c0,3.194-0.995,5.177-2.984,5.95
			c-0.529,0.194-1.055,0.29-1.582,0.29v2.831h18.384v-2.832c-0.852-0.095-1.633-0.373-2.343-0.834
			c-0.71-0.459-1.258-1.076-1.644-1.85c-0.386-0.775-0.639-1.682-0.76-2.722c-0.123-1.04-0.183-1.948-0.183-2.722v-48.34
			c0-1.354,0.091-2.842,0.274-4.463c0.183-1.621,0.639-2.988,1.37-4.1c0.609-0.92,1.278-1.5,2.009-1.742
			c0.488-0.097,0.973-0.194,1.461-0.29v-2.831h-18.386v2.833c0.986,0.146,1.817,0.4,2.495,0.763
			c0.678,0.363,1.262,0.945,1.754,1.744c0.493,0.799,0.801,1.538,0.923,2.215c0.123,0.68,0.185,1.672,0.185,2.979
			c0,0.194,0,0.485,0,0.872v16.42l-12.237-18.309c-0.406-0.63-0.69-1.138-0.852-1.527c-0.365-0.822-0.548-1.573-0.548-2.252
			c0-0.483,0.142-0.956,0.427-1.417c0.283-0.459,0.578-0.822,0.883-1.089c0.304-0.266,0.658-0.4,1.064-0.4v-2.833h-34.822v2.833
			c1.501,0.244,2.679,0.92,3.531,2.032c0.405,0.533,0.689,1.502,0.852,2.904c0.162,1.404,0.244,2.879,0.244,4.427
			c0,0.63,0,1.235,0,1.815v44.491c0,2.468-0.183,4.681-0.548,6.641c-0.35,1.875-0.924,3.134-1.72,3.79
			c-0.165-0.117-0.328-0.23-0.504-0.378c-0.487-0.411-0.995-1.125-1.521-2.141c-0.163-0.338-0.386-0.797-0.67-1.379l-15.828-56.685
			c-0.244-0.87-0.387-1.354-0.426-1.45c-0.122-0.484-0.183-0.92-0.183-1.307c0-0.387,0.081-0.774,0.244-1.161
			c0.366-0.822,1.035-1.234,2.009-1.234v-3.197h-26.969v2.761c0.284,0.097,0.558,0.218,0.822,0.363
			c0.263,0.145,0.527,0.448,0.791,0.908c0.264,0.461,0.396,1.03,0.396,1.707c0,0.485-0.082,1.017-0.244,1.599
			c-0.162,0.581-0.345,1.162-0.547,1.744l-16.866,51.656c-0.487,1.598-0.995,2.845-1.522,3.742
			c-0.123,0.209-0.263,0.423-0.415,0.638c-0.44-1.052-0.904-2.274-1.397-3.714c-2.191-6.482-3.754-10.668-4.688-12.556
			c-1.746-3.483-3.42-6.616-5.022-9.399c-1.604-2.781-3.48-5.794-5.632-9.037c0.325,0,1.501-0.701,3.531-2.104
			c2.679-1.887,4.85-3.943,6.514-6.169c2.313-3.145,3.47-6.508,3.47-10.09c0-0.386-0.041-1.015-0.121-1.887
			c-0.366-3.289-1.796-5.807-4.293-7.548c-2.496-1.741-6.118-2.613-10.867-2.613h-42.616v2.833c0.852,0,1.584,0.182,2.192,0.545
			c0.608,0.364,1.146,1.028,1.613,1.996c0.466,0.968,0.781,2.734,0.944,5.299c0.04,0.821,0.06,1.982,0.06,3.482l-0.121,47.538
			c0,1.645-0.122,2.975-0.366,3.991c-0.244,1.017-0.771,1.912-1.583,2.685c-0.608,0.581-1.126,0.981-1.552,1.198
			c-0.426,0.219-0.985,0.326-1.674,0.326v2.834h29.04v-2.834c-1.137-0.29-1.848-0.508-2.131-0.653
			c-0.609-0.338-1.238-0.993-1.888-1.963c-0.487-0.726-0.821-1.585-1.004-2.578c-0.182-0.993-0.274-2.263-0.274-3.815v-20.488
			l3.227-1.816c1.218,1.986,2.445,3.996,3.683,6.03c1.238,2.034,2.262,3.899,3.075,5.594c2.759,5.909,4.444,9.663,5.052,11.261
			c0.892,2.374,1.34,4.214,1.34,5.521c0,0.97-0.244,1.623-0.73,1.962c-0.893,0.63-1.888,1.017-2.983,1.163v2.616h19.591h11.092
			h9.119v-2.689c-0.771-0.146-1.461-0.424-2.07-0.835c-0.609-0.411-1.157-1.053-1.643-1.925c-0.204-0.387-0.304-1.09-0.304-2.107
			c0-2.082,0.265-3.995,0.796-5.738l4.296-14.761c1.382,0,3.139,0.23,5.271,0.689c2.133,0.459,3.747,0.979,4.844,1.559
			c2.803,1.498,5.343,3.769,7.617,6.813c2.112,2.804,3.31,5.342,3.596,7.612c0.081,0.484,0.122,1.16,0.122,2.03
			c0,2.61-0.812,4.496-2.435,5.655c-0.528,0.338-1.319,0.628-2.375,0.87v2.827h26.27h5.265H503.283z M399.587,452.332
			c-2.354,2.423-5.074,4.263-8.157,5.522l-2.131,0.799v-18.236c0-1.21,0.152-2.264,0.456-3.161c0.304-0.896,0.842-1.537,1.613-1.925
			c1.38-0.678,2.861-1.017,4.445-1.017c2.313,0,4.221,0.63,5.722,1.889c1.745,1.453,2.617,3.44,2.617,5.958
			C404.153,445.793,402.631,449.184,399.587,452.332z M455.407,465.06c-1.661-1.017-3.199-1.768-4.617-2.252
			c-1.417-0.484-2.49-0.751-3.219-0.8c-0.729-0.047-1.336-0.072-1.822-0.072l5.818-20.422l6.816,25.725
			C457.614,466.562,456.622,465.835,455.407,465.06z"/>
	</g>
	<g>
		<path style="fill:#FB0D0C;" d="M655.978,499.412c0.852,0.097,1.623,0.266,2.313,0.508l2.069,0.727l7.915-27.826l-2.069-1.235
			c-0.69,3.196-2.313,6.514-4.87,9.954c-2.274,3.1-4.648,5.497-7.123,7.192c-1.666,1.115-3.502,2.011-5.511,2.689
			c-2.009,0.679-3.968,1.017-5.874,1.017c-1.746,0-3.288-0.302-4.628-0.908c-1.338-0.605-2.374-1.512-3.105-2.724
			c-0.73-1.21-1.198-2.373-1.4-3.488c-0.203-1.114-0.304-2.47-0.304-4.068c0-0.291,0-0.678,0-1.163c0-0.484,0-1.064,0-1.744v-20.779
			h7.794c0.891,0,1.987,0.327,3.286,0.98c1.299,0.655,2.456,1.515,3.471,2.58c1.013,1.066,1.927,2.52,2.738,4.359
			c0.649,1.502,1.055,2.737,1.219,3.705l2.313-0.436l-4.08-27.681l-1.826,0.655c0,0.242,0,0.606,0,1.089
			c0,2.084-0.689,3.851-2.062,5.304c-0.687,0.679-1.404,1.151-2.151,1.416c-0.749,0.267-1.527,0.4-2.334,0.4h-8.55v-7.92
			c0-1.5,0.171-2.808,0.518-3.924c0.344-1.114,0.943-2.058,1.795-2.833c1.299-1.164,3.308-1.744,6.027-1.744
			c2.436,0,4.911,0.484,7.427,1.452c2.516,0.97,4.689,2.399,6.514,4.287c3.165,3.343,5.215,7.41,6.149,12.205l2.009-1.816
			l-4.445-24.558c-0.69,0.324-1.238,0.532-1.642,0.624c-0.082,0-0.63,0.092-1.644,0.276c-1.948,0.37-3.674,0.554-5.176,0.554
			c-0.527,0-0.893,0-1.094,0h-40.181v2.833c0.893,0,1.584,0.085,2.069,0.254c0.488,0.171,0.975,0.582,1.463,1.235
			c0.486,0.655,0.779,1.308,0.883,1.963c0.1,0.653,0.151,1.61,0.151,2.87c0,0.144,0,0.411,0,0.799v51.584
			c0,1.503-0.091,2.725-0.274,3.67c-0.181,0.944-0.6,1.877-1.247,2.797c-0.488,0.63-0.904,1.053-1.249,1.271
			c-0.345,0.219-1.126,0.448-2.343,0.69v2.762h44.38C654.232,499.267,655.125,499.315,655.978,499.412z"/>
	</g>
	<g>
		<path style="fill:#FB0D0C;" d="M603.272,466.775c0-1.498,0.091-2.731,0.274-3.699c0.183-0.966,0.598-1.861,1.247-2.683
			c1.219-1.644,2.658-2.466,4.324-2.466v-2.47h-29.162v2.689c0.203,0,0.527,0,0.973,0c1.178,0,2.231,0.532,3.166,1.594
			c0.487,0.58,0.822,1.184,1.005,1.813c0.183,0.629,0.274,1.764,0.274,3.407v17.326c0,2.851-0.529,5.125-1.584,6.816
			c-1.258,1.982-3.206,2.972-5.843,2.972c-5.927,0-10.715-3.534-14.368-10.607c-3.126-6.005-4.687-12.665-4.687-19.98
			c0-0.581,0.009-1.065,0.03-1.453c0.02-0.387,0.05-0.8,0.091-1.236c0.568-7.119,2.132-12.932,4.689-17.437
			c3.084-5.424,7.285-8.137,12.601-8.137c3.409,0,7.285,1.191,11.628,3.575c1.744,0.974,3.489,2.7,5.235,5.181
			c2.274,3.211,3.754,5.984,4.445,8.318l1.521-0.947l-2.495-24.991c-0.731,0.679-1.441,1.356-2.132,2.034
			c-0.893,0.582-2.05,0.872-3.47,0.872c-1.258,0-2.639-0.192-4.141-0.581c-2.922-0.727-5.52-1.246-7.792-1.562
			c-2.274-0.314-4.708-0.472-7.306-0.472c-4.79,0-9.192,0.715-13.21,2.144c-4.02,1.429-7.55,3.694-10.594,6.793
			c-2.272,2.365-4.119,5.015-5.555,7.94v36.72c0.998,2.341,2.176,4.555,3.546,6.633c3.733,5.667,8.301,9.591,13.697,11.77
			c4.343,1.744,10.167,2.616,17.473,2.616h30.439v-2.756c-0.973-0.29-1.715-0.616-2.222-0.979c-0.507-0.363-0.964-0.979-1.368-1.85
			c-0.407-0.869-0.651-1.716-0.731-2.538c0-0.918,0-1.837,0-2.756V466.775z"/>
	</g>
	<g>
		<path style="fill:#FB0D0C;" d="M254.679,515.867c0.407-0.091,0.923-0.135,1.546-0.135c4.553,0.728,9.011,1.457,13.374,2.185
			c4.361,0.73,8.292,1.094,11.792,1.094c4.361,0,12.898-0.973,17.691-2.916c5.848-2.368,10.003-5.706,13.551-10.019
			c4.314-5.285,6.605-11.63,6.605-19.039c0-5.63-1.262-11.205-4.376-15.95c-1.327-2.021-3.075-3.699-5.047-5.078
			c-3.599-2.514-7.723-4.097-11.84-5.541c-4.713-1.654-9.388-3.388-14.068-5.133c-3.29-1.227-6.673-1.873-9.239-4.504
			c-3.755-3.851-2.734-10.134,0.713-13.833c1.601-1.717,4.399-3.052,6.646-3.584c8.165-1.93,13.981,1.87,21.497,9.158
			c1.771,1.718,3.644,5.58,3.644,5.58l4.175-23.459c-0.479,0.305-2.477,1.609-3.34,2.278c-1.609,1.245-4.307-0.367-5.906-0.946
			c-2.157-0.779-4.351-1.45-6.582-1.986c-4.484-1.075-9.084-1.591-13.694-1.591c-3.616,0-7.558,0.265-11.078,1.085
			c-2.585,0.602-5.34,1.907-7.63,3.227c-7.42,4.278-10.97,11.875-12.567,19.98c-0.978,4.961-0.699,10.089,1.335,14.758
			c2.893,6.638,8.03,12.277,14.769,15.06c0,0,22.978,7.655,22.979,7.655c1.658,0.553,3.583,2.178,4.594,3.577
			c3.647,5.041,1.881,13.426-2.609,17.357c-7.043,6.167-19.717,3.891-26.666-1.334c-3.81-2.867-5.824-7.181-7.451-11.532
			c-0.095-0.253-1.823-5.03-1.728-5.03c-0.024,0-3.416,0-3.416,0L250,519.011c0.527-0.487,2.69-1.868,3.241-2.324
			C253.792,516.232,254.271,515.959,254.679,515.867z"/>
	</g>
	<g>
		<path style="fill:#FB0D0C;" d="M728.653,476.18c-2.052-3.567-4.45-7.429-7.199-11.585c0.415,0,1.918-0.9,4.514-2.699
			c3.423-2.418,6.199-5.053,8.327-7.907c2.957-4.032,4.436-8.343,4.436-12.936c0-0.495-0.053-1.301-0.157-2.418
			c-0.466-4.218-2.295-7.445-5.486-9.677c-3.192-2.232-7.822-3.35-13.891-3.35h-54.476v3.632c1.089,0,2.023,0.233,2.801,0.699
			c0.779,0.465,1.466,1.319,2.062,2.559c0.596,1.239,1,3.504,1.206,6.792c0.052,1.053,0.078,2.543,0.078,4.464l-0.155,60.944
			c0,2.108-0.156,3.813-0.468,5.116c-0.311,1.304-0.986,2.452-2.023,3.443c-0.778,0.746-1.44,1.256-1.984,1.536
			c-0.544,0.281-1.258,0.418-2.141,0.418v3.633h37.121v-3.633c-1.452-0.372-2.361-0.651-2.722-0.838
			c-0.779-0.434-1.584-1.272-2.413-2.514c-0.623-0.932-1.052-2.034-1.285-3.308c-0.233-1.272-0.35-2.902-0.35-4.89v-26.267
			l4.124-2.327c1.557,2.546,3.126,5.123,4.708,7.73c1.584,2.608,2.893,4.999,3.93,7.172c3.529,7.576,5.682,12.388,6.459,14.438
			c1.141,3.043,1.713,5.402,1.713,7.078c0,1.244-0.311,2.082-0.934,2.516c-1.142,0.808-2.413,1.304-3.813,1.489v3.354h39.222v-3.164
			c-1.454-0.311-2.673-0.714-3.658-1.21c-1.349-0.681-3.06-4.062-5.135-10.142c-2.802-8.312-4.801-13.678-5.993-16.098
			C732.842,483.764,730.701,479.748,728.653,476.18z M707.835,458.673c-3.009,3.105-6.486,5.464-10.429,7.078l-2.722,1.025v-23.379
			c0-1.552,0.194-2.902,0.584-4.052c0.388-1.149,1.075-1.972,2.062-2.469c1.763-0.869,3.656-1.303,5.68-1.303
			c2.957,0,5.397,0.808,7.317,2.422c2.23,1.863,3.345,4.409,3.345,7.637C713.671,450.29,711.726,454.637,707.835,458.673z"/>
	</g>
	<g>
		<path style="fill:#FB0D0C;" d="M381.836,512.493c-0.812,0.609-1.654,1.064-2.526,1.367c-0.874,0.304-1.552,0.47-2.04,0.496
			c-0.487,0.029-1.035,0.041-1.643,0.041h-36.528c-0.122,0-0.71,0-1.765,0c-0.082,0-0.416-0.023-1.004-0.073
			c-0.589-0.048-1.045-0.146-1.37-0.294c-0.812-0.438-1.482-0.952-2.009-1.537l-4.383,25.413l1.826,0.441
			c0.366-1.66,1.157-3.662,2.375-6.005c1.013-1.954,2.028-3.443,3.044-4.468c2.029-1.952,3.916-3.333,5.662-4.139
			c1.745-0.804,3.835-1.208,6.27-1.208v52.243c0,2.094-0.082,3.653-0.243,4.676c-0.163,1.023-0.67,2.023-1.522,2.996
			c-1.422,1.607-2.923,2.411-4.505,2.411c-0.366,0-0.649,0.025-0.852,0.073v2.783h33.362v-2.856c-1.299,0-2.374-0.182-3.227-0.548
			c-0.852-0.367-1.633-1.085-2.343-2.158c-0.711-1.073-1.178-2.292-1.4-3.658c-0.223-1.365-0.335-2.902-0.335-4.608
			c0-0.39,0-0.877,0-1.463l-0.061-49.891c2.923,0,5.489,0.648,7.701,1.941c2.212,1.294,4.271,3.308,6.18,6.043
			c1.705,2.441,2.901,5.126,3.592,8.055l1.827-0.664L381.836,512.493z"/>
	</g>
	<g>
		<path style="fill:#FB0D0C;" d="M422.178,520.306c0.734,0.142,1.284,0.262,1.651,0.356c1.018,0.331,1.712,0.779,2.078,1.349
			c0.529,0.851,0.907,1.774,1.132,2.769c0.223,0.993,0.336,2.767,0.336,5.324v6.53h-18.283v-6.744c0-3.265,0.631-5.868,1.895-7.808
			c0.448-0.664,1.06-1.125,1.834-1.384c0.774-0.26,1.407-0.391,1.896-0.391v-2.769h-29.473v2.769
			c0.938,0.142,1.712,0.366,2.324,0.674c0.611,0.308,1.162,0.852,1.65,1.633c0.489,0.781,0.795,1.55,0.917,2.306
			c0.123,0.758,0.184,1.916,0.184,3.479c0,0.19,0,0.521,0,0.995l0.122,46.425c0,1.56-0.205,3.206-0.611,4.932
			c-0.408,1.73-0.816,2.804-1.223,3.231c-0.775,0.756-1.315,1.219-1.62,1.384c-0.306,0.165-0.867,0.343-1.681,0.532v2.698h29.228
			v-2.769c-1.673,0-3.058-0.733-4.158-2.198c-0.571-0.802-0.928-1.582-1.07-2.338c-0.143-0.756-0.214-1.795-0.214-3.117v-34.3h18.16
			v34.441c0,1.135-0.092,2.139-0.275,3.012c-0.183,0.874-0.52,1.665-1.009,2.374c-1.02,1.418-2.384,2.126-4.097,2.126v2.769h29.656
			v-2.769c-1.55,0-2.772-0.52-3.669-1.56c-0.448-0.568-0.785-1.431-1.009-2.587c-0.224-1.158-0.336-2.424-0.336-3.795l-0.122-48.22
			c0-1.559,0.092-2.906,0.275-4.041c0.183-1.135,0.56-2.176,1.132-3.121c0.57-0.945,1.303-1.56,2.201-1.843
			c0.529-0.094,1.079-0.214,1.651-0.356v-2.765h-29.473V520.306z"/>
	</g>
	<g>
		<path style="fill:#FB0D0C;" d="M454.907,520.303c1.141,0.19,2.018,0.415,2.63,0.674c0.611,0.26,1.079,0.651,1.406,1.171
			c0.612,0.945,0.999,2.009,1.162,3.19c0.163,1.183,0.245,2.79,0.245,4.822v47.937c0,1.181-0.092,2.199-0.275,3.05
			c-0.183,0.851-0.541,1.63-1.07,2.34c-1.101,1.56-2.467,2.34-4.097,2.34v2.769h29.656v-2.769c-0.775,0-1.467-0.176-2.079-0.532
			c-0.611-0.354-1.142-0.792-1.59-1.311c-0.448-0.521-0.785-1.359-1.009-2.518c-0.224-1.158-0.336-2.423-0.336-3.794v-47.726
			c0-1.747,0.071-3.178,0.214-4.288c0.142-1.112,0.499-2.117,1.07-3.014c0.406-0.662,0.834-1.146,1.284-1.454
			c0.448-0.308,1.304-0.603,2.569-0.888v-2.765h-29.779V520.303z"/>
	</g>
	<g>
		<path style="fill:#FB0D0C;" d="M542.924,583.206c-0.388-0.756-0.642-1.642-0.763-2.658c-0.123-1.016-0.183-1.904-0.183-2.66
			v-47.231c0-1.322,0.091-2.778,0.274-4.361c0.183-1.584,0.642-2.918,1.375-4.005c0.612-0.898,1.285-1.466,2.018-1.703
			c0.489-0.094,0.979-0.189,1.468-0.283v-2.767h-18.466v2.769c0.989,0.142,1.826,0.391,2.505,0.745
			c0.68,0.356,1.267,0.923,1.763,1.705c0.495,0.779,0.803,1.502,0.927,2.164c0.123,0.664,0.185,1.633,0.185,2.911
			c0,0.19,0,0.473,0,0.852v16.043l-12.29-17.889c-0.407-0.614-0.694-1.11-0.856-1.489c-0.368-0.804-0.552-1.537-0.552-2.201
			c0-0.473,0.142-0.934,0.429-1.384c0.285-0.448,0.58-0.804,0.886-1.064c0.306-0.26,0.662-0.391,1.071-0.391v-2.769h-34.977v2.769
			c1.508,0.238,2.69,0.898,3.547,1.986c0.407,0.52,0.692,1.466,0.856,2.836c0.162,1.372,0.245,2.813,0.245,4.326
			c0,0.616,0,1.206,0,1.774v43.469c0,2.411-0.183,4.573-0.551,6.487c-0.366,1.915-0.978,3.18-1.835,3.794
			c-0.489,0.331-0.877,0.532-1.162,0.603c-0.286,0.071-0.816,0.155-1.59,0.249v2.765h17.793v-2.765
			c-0.965-0.189-1.75-0.486-2.354-0.886c-0.603-0.402-1.077-0.98-1.418-1.737c-0.342-0.758-0.584-1.548-0.724-2.375
			c-0.141-0.827-0.211-1.831-0.211-3.014l0.06-47.503l28.075,38.286c1.626,2.222,2.726,3.971,3.295,5.247
			c0.854,1.843,1.281,3.804,1.281,5.884c0,3.121-0.998,5.059-2.996,5.813c-0.53,0.19-1.06,0.285-1.589,0.285v2.765h18.466v-2.767
			c-0.856-0.093-1.64-0.365-2.354-0.813C543.861,584.565,543.311,583.962,542.924,583.206z"/>
	</g>
	<g>
		<path style="fill:#FB0D0C;" d="M655.421,546.429l-14.674-5.466c-2.568-0.945-4.464-2.176-5.687-3.69
			c-0.979-1.23-1.468-2.626-1.468-4.189c0-1.041,0.142-2.034,0.429-2.98c0.162-0.569,0.427-1.231,0.795-1.987
			c0.569-1.231,1.445-2.142,2.628-2.733c1.182-0.593,2.569-0.888,4.158-0.888c1.834,0,3.751,0.379,5.747,1.135
			c1.998,0.758,3.77,1.753,5.32,2.982c1.916,1.514,3.689,4.046,5.32,7.596c0.692,1.466,1.1,2.555,1.222,3.265l2.201-0.781
			l-2.078-23.071c-0.407,0.238-0.979,0.616-1.712,1.135c-0.979,0.569-1.916,0.995-2.813,1.279c-0.123,0.046-0.347,0.069-0.673,0.069
			c-2.772-0.614-5.463-1.23-8.071-1.845c-2.61-0.614-4.975-0.922-7.094-0.922c-1.63,0-3.18,0.165-4.646,0.496
			c-6.034,1.42-10.906,4.046-14.615,7.879c-4.157,4.308-6.237,9.56-6.237,15.76c0,4.496,1.181,8.329,3.546,11.5
			c2.16,2.886,5.178,5.064,9.05,6.53l16.144,6.176c1.466,0.568,2.639,1.502,3.516,2.804c0.875,1.301,1.315,2.827,1.315,4.578
			c0,0.758-0.043,1.349-0.123,1.774c-0.489,2.84-1.835,5.041-4.036,6.601c-2.201,1.562-4.852,2.343-7.95,2.343
			c-2.813,0-5.697-0.71-8.651-2.13c-2.957-1.42-5.514-3.454-7.674-6.105c-1.509-1.845-2.834-4.354-3.975-7.525
			c-0.897-2.459-1.406-4.4-1.528-5.82l-2.201,0.283l2.384,29.389c0.448-0.379,0.907-0.745,1.375-1.101
			c0.468-0.354,0.877-0.568,1.224-0.639c0.345-0.069,0.783-0.105,1.313-0.105c3.874,0.568,7.664,1.135,11.374,1.703
			c3.71,0.568,7.053,0.852,10.028,0.852c3.71,0,7.603-0.758,11.68-2.272c4.973-1.845,8.968-4.447,11.984-7.808
			c3.669-4.117,5.504-9.062,5.504-14.836c0-4.827-1.091-8.874-3.27-12.139C662.321,550.263,659.294,547.897,655.421,546.429z"/>
	</g>
	<g>
		<path style="fill:#FB0D0C;" d="M606.736,583.012c-0.408-0.87-0.651-1.717-0.731-2.539c0-0.918,0-1.836,0-2.756v-21.614
			c0-1.498,0.091-2.731,0.274-3.697c0.183-0.968,0.598-1.863,1.247-2.685c1.219-1.642,2.658-2.464,4.324-2.464v-2.471h-29.162v2.689
			c0.203,0,0.527,0,0.973,0c1.178,0,2.231,0.532,3.166,1.596c0.487,0.58,0.822,1.183,1.005,1.811
			c0.183,0.63,0.274,1.765,0.274,3.407v17.327c0,2.852-0.529,5.125-1.584,6.815c-1.258,1.982-3.206,2.973-5.843,2.973
			c-5.927,0-10.715-3.535-14.368-10.608c-3.126-6.005-4.687-12.665-4.687-19.98c0-0.58,0.009-1.064,0.03-1.452
			c0.02-0.388,0.05-0.799,0.091-1.235c0.568-7.121,2.132-12.932,4.689-17.438c3.084-5.423,7.285-8.137,12.601-8.137
			c3.409,0,7.285,1.192,11.628,3.575c1.744,0.973,3.489,2.701,5.235,5.181c2.274,3.21,3.754,5.984,4.445,8.317l1.521-0.947
			l-2.495-24.991c-0.731,0.68-1.441,1.358-2.132,2.036c-0.893,0.58-2.05,0.872-3.47,0.872c-1.258,0-2.639-0.194-4.141-0.582
			c-2.922-0.726-5.52-1.247-7.792-1.562c-2.274-0.315-4.708-0.472-7.306-0.472c-4.79,0-9.192,0.715-13.21,2.142
			c-4.02,1.429-7.55,3.694-10.594,6.794c-2.272,2.365-4.119,5.014-5.555,7.94v36.722c0.998,2.34,2.176,4.553,3.546,6.632
			c3.733,5.667,8.301,9.591,13.697,11.77c4.343,1.744,10.167,2.616,17.473,2.616h30.439v-2.756c-0.973-0.29-1.715-0.616-2.222-0.979
			C607.597,584.5,607.14,583.882,606.736,583.012z"/>
	</g>
	<g>
		<rect x="250" y="529.351" style="fill:#FB0D0C;" width="73.337" height="6.641"/>
	</g>
	<g>
		<rect x="664.819" y="529.351" style="fill:#FB0D0C;" width="85.181" height="6.641"/>
	</g>
	<!-- <g>
		<rect x="250" y="409.417" style="fill:#FB0D0C;" width="489.372" height="6.015"/>
	</g> -->
</g>
</svg>
